<svg id="visual" viewBox="0 0 900 300" width="900" height="300" xmlns="http://www.w3.org/2000/svg" xmlns:xlink="http://www.w3.org/1999/xlink" version="1.1"><path d="M0 159L21.5 173.8C43 188.7 86 218.3 128.8 222.8C171.7 227.3 214.3 206.7 257.2 194.5C300 182.3 343 178.7 385.8 183.2C428.7 187.7 471.3 200.3 514.2 205.3C557 210.3 600 207.7 642.8 204.8C685.7 202 728.3 199 771.2 197C814 195 857 194 878.5 193.5L900 193L900 0L878.5 0C857 0 814 0 771.2 0C728.3 0 685.7 0 642.8 0C600 0 557 0 514.2 0C471.3 0 428.7 0 385.8 0C343 0 300 0 257.2 0C214.3 0 171.7 0 128.8 0C86 0 43 0 21.5 0L0 0Z" fill="#bbfffa"></path><path d="M0 135L21.5 133.7C43 132.3 86 129.7 128.8 130.2C171.7 130.7 214.3 134.3 257.2 140C300 145.7 343 153.3 385.8 160.7C428.7 168 471.3 175 514.2 177.5C557 180 600 178 642.8 179.7C685.7 181.3 728.3 186.7 771.2 177.3C814 168 857 144 878.5 132L900 120L900 0L878.5 0C857 0 814 0 771.2 0C728.3 0 685.7 0 642.8 0C600 0 557 0 514.2 0C471.3 0 428.7 0 385.8 0C343 0 300 0 257.2 0C214.3 0 171.7 0 128.8 0C86 0 43 0 21.5 0L0 0Z" fill="#65c3d7"></path><path d="M0 114L21.5 113C43 112 86 110 128.8 117.3C171.7 124.7 214.3 141.3 257.2 150C300 158.7 343 159.3 385.8 158.2C428.7 157 471.3 154 514.2 150C557 146 600 141 642.8 131.2C685.7 121.3 728.3 106.7 771.2 104.3C814 102 857 112 878.5 117L900 122L900 0L878.5 0C857 0 814 0 771.2 0C728.3 0 685.7 0 642.8 0C600 0 557 0 514.2 0C471.3 0 428.7 0 385.8 0C343 0 300 0 257.2 0C214.3 0 171.7 0 128.8 0C86 0 43 0 21.5 0L0 0Z" fill="#0087b6"></path><path d="M0 92L21.5 95.7C43 99.3 86 106.7 128.8 108C171.7 109.3 214.3 104.7 257.2 104.5C300 104.3 343 108.7 385.8 105.5C428.7 102.3 471.3 91.7 514.2 86.7C557 81.7 600 82.3 642.8 84.5C685.7 86.7 728.3 90.3 771.2 90.7C814 91 857 88 878.5 86.5L900 85L900 0L878.5 0C857 0 814 0 771.2 0C728.3 0 685.7 0 642.8 0C600 0 557 0 514.2 0C471.3 0 428.7 0 385.8 0C343 0 300 0 257.2 0C214.3 0 171.7 0 128.8 0C86 0 43 0 21.5 0L0 0Z" fill="#004b8c"></path><path d="M0 56L21.5 58.5C43 61 86 66 128.8 60.8C171.7 55.7 214.3 40.3 257.2 35.7C300 31 343 37 385.8 44C428.7 51 471.3 59 514.2 63.3C557 67.7 600 68.3 642.8 68.2C685.7 68 728.3 67 771.2 61.5C814 56 857 46 878.5 41L900 36L900 0L878.5 0C857 0 814 0 771.2 0C728.3 0 685.7 0 642.8 0C600 0 557 0 514.2 0C471.3 0 428.7 0 385.8 0C343 0 300 0 257.2 0C214.3 0 171.7 0 128.8 0C86 0 43 0 21.5 0L0 0Z" fill="#070f55"></path></svg>